<svg width="36" height="36" viewBox="0 0 36 36" fill="none" xmlns="http://www.w3.org/2000/svg">
<path d="M33.4286 20.5714H20.5714V33.4286C20.5714 34.1106 20.3005 34.7646 19.8183 35.2468C19.336 35.7291 18.682 36 18 36C17.318 36 16.664 35.7291 16.1817 35.2468C15.6995 34.7646 15.4286 34.1106 15.4286 33.4286V20.5714H2.57143C1.88944 20.5714 1.23539 20.3005 0.753154 19.8183C0.270918 19.336 0 18.682 0 18C0 17.318 0.270918 16.664 0.753154 16.1817C1.23539 15.6995 1.88944 15.4286 2.57143 15.4286H15.4286V2.57143C15.4286 1.88944 15.6995 1.23539 16.1817 0.753153C16.664 0.270917 17.318 0 18 0C18.682 0 19.336 0.270917 19.8183 0.753153C20.3005 1.23539 20.5714 1.88944 20.5714 2.57143V15.4286H33.4286C34.1106 15.4286 34.7646 15.6995 35.2468 16.1817C35.7291 16.664 36 17.318 36 18C36 18.682 35.7291 19.336 35.2468 19.8183C34.7646 20.3005 34.1106 20.5714 33.4286 20.5714Z" fill="#672E18"/>
<path d="M33.4286 20.5714H20.5714V33.4286C20.5714 34.1106 20.3005 34.7646 19.8183 35.2468C19.336 35.7291 18.682 36 18 36C17.318 36 16.664 35.7291 16.1817 35.2468C15.6995 34.7646 15.4286 34.1106 15.4286 33.4286V20.5714H2.57143C1.88944 20.5714 1.23539 20.3005 0.753154 19.8183C0.270918 19.336 0 18.682 0 18C0 17.318 0.270918 16.664 0.753154 16.1817C1.23539 15.6995 1.88944 15.4286 2.57143 15.4286H15.4286V2.57143C15.4286 1.88944 15.6995 1.23539 16.1817 0.753153C16.664 0.270917 17.318 0 18 0C18.682 0 19.336 0.270917 19.8183 0.753153C20.3005 1.23539 20.5714 1.88944 20.5714 2.57143V15.4286H33.4286C34.1106 15.4286 34.7646 15.6995 35.2468 16.1817C35.7291 16.664 36 17.318 36 18C36 18.682 35.7291 19.336 35.2468 19.8183C34.7646 20.3005 34.1106 20.5714 33.4286 20.5714Z" stroke="#672E18"/>
</svg>
