<svg width="14" height="11" viewBox="0 0 14 11" fill="none" xmlns="http://www.w3.org/2000/svg">
<path fill-rule="evenodd" clip-rule="evenodd" d="M12.7802 0.954291C12.921 1.10805 13 1.31655 13 1.53396C13 1.75137 12.921 1.95988 12.7802 2.11364L5.64967 9.90275C5.50891 10.0565 5.31803 10.1428 5.119 10.1428C4.91997 10.1428 4.72909 10.0565 4.58834 9.90275L1.2107 6.21317C1.07397 6.05853 0.998318 5.85142 1.00003 5.63645C1.00174 5.42147 1.08068 5.21583 1.21984 5.06381C1.35901 4.91179 1.54726 4.82556 1.74406 4.8237C1.94087 4.82183 2.13047 4.90447 2.27203 5.05382L5.119 8.16373L11.7189 0.954291C11.8597 0.800582 12.0505 0.714233 12.2496 0.714233C12.4486 0.714233 12.6395 0.800582 12.7802 0.954291Z" fill="#A2573B" stroke="#A2573B"/>
</svg>
