<svg width="16" height="10" viewBox="0 0 16 10" fill="none" xmlns="http://www.w3.org/2000/svg">
<path fill-rule="evenodd" clip-rule="evenodd" d="M9.06002 9.06001C8.77877 9.34091 8.39752 9.49869 8.00002 9.49869C7.60252 9.49869 7.22127 9.34091 6.94002 9.06001L1.28202 3.40401C1.00076 3.12262 0.842802 2.74102 0.842896 2.34316C0.842989 1.9453 1.00113 1.56377 1.28252 1.28251C1.56392 1.00125 1.94552 0.84329 2.34338 0.843384C2.74123 0.843478 3.12276 1.00162 3.40402 1.28301L8.00002 5.87901L12.596 1.28301C12.8788 1.00964 13.2576 0.858265 13.6509 0.861496C14.0442 0.864727 14.4205 1.0223 14.6988 1.30028C14.977 1.57827 15.1349 1.95441 15.1385 2.34771C15.1421 2.741 14.9911 3.11998 14.718 3.40301L9.06102 9.06101L9.06002 9.06001Z" fill="#672E18"/>
</svg>
