<svg width="14" height="15" viewBox="0 0 14 15" fill="none" xmlns="http://www.w3.org/2000/svg">
<path d="M6 13.998L6 8.99805L1 8.99805C0.734784 8.99805 0.480429 8.89269 0.292893 8.70515C0.105357 8.51762 6.36102e-07 8.26326 6.47695e-07 7.99805C6.59288e-07 7.73283 0.105357 7.47848 0.292893 7.29094C0.48043 7.1034 0.734784 6.99805 1 6.99805L6 6.99805L6 1.99805C6 1.73283 6.10536 1.47848 6.29289 1.29094C6.48043 1.1034 6.73478 0.998047 7 0.998047C7.26522 0.998047 7.51957 1.1034 7.70711 1.29094C7.89464 1.47848 8 1.73283 8 1.99805L8 6.99805L13 6.99805C13.2652 6.99805 13.5196 7.1034 13.7071 7.29094C13.8946 7.47848 14 7.73283 14 7.99805C14 8.26326 13.8946 8.51762 13.7071 8.70515C13.5196 8.89269 13.2652 8.99805 13 8.99805L8 8.99805L8 13.998C8 14.2633 7.89464 14.5176 7.70711 14.7052C7.51957 14.8927 7.26522 14.998 7 14.998C6.73478 14.998 6.48043 14.8927 6.29289 14.7052C6.10536 14.5176 6 14.2633 6 13.998Z" fill="#4E8FF9"/>
</svg>
