<svg width="20" height="5" viewBox="0 0 20 5" fill="none" xmlns="http://www.w3.org/2000/svg">
<path d="M2.5 0C2.8283 -6.9185e-09 3.15339 0.0646642 3.45671 0.190301C3.76002 0.315938 4.03562 0.500087 4.26777 0.732233C4.49991 0.96438 4.68406 1.23998 4.8097 1.54329C4.93534 1.84661 5 2.1717 5 2.5C5 2.8283 4.93534 3.15339 4.8097 3.45671C4.68406 3.76002 4.49991 4.03562 4.26777 4.26777C4.03562 4.49991 3.76002 4.68406 3.45671 4.8097C3.15339 4.93534 2.8283 5 2.5 5C1.83696 5 1.20107 4.73661 0.732233 4.26777C0.263392 3.79893 0 3.16304 0 2.5C0 1.83696 0.263392 1.20107 0.732233 0.732233C1.20107 0.263392 1.83696 1.39726e-08 2.5 0ZM10 0C10.3283 -6.9185e-09 10.6534 0.0646642 10.9567 0.190301C11.26 0.315938 11.5356 0.500087 11.7678 0.732233C11.9999 0.96438 12.1841 1.23998 12.3097 1.54329C12.4353 1.84661 12.5 2.1717 12.5 2.5C12.5 2.8283 12.4353 3.15339 12.3097 3.45671C12.1841 3.76002 11.9999 4.03562 11.7678 4.26777C11.5356 4.49991 11.26 4.68406 10.9567 4.8097C10.6534 4.93534 10.3283 5 10 5C9.33696 5 8.70107 4.73661 8.23223 4.26777C7.76339 3.79893 7.5 3.16304 7.5 2.5C7.5 1.83696 7.76339 1.20107 8.23223 0.732233C8.70107 0.263392 9.33696 1.39726e-08 10 0ZM17.5 0C17.8283 -6.9185e-09 18.1534 0.0646642 18.4567 0.190301C18.76 0.315938 19.0356 0.500087 19.2678 0.732233C19.4999 0.96438 19.6841 1.23998 19.8097 1.54329C19.9353 1.84661 20 2.1717 20 2.5C20 2.8283 19.9353 3.15339 19.8097 3.45671C19.6841 3.76002 19.4999 4.03562 19.2678 4.26777C19.0356 4.49991 18.76 4.68406 18.4567 4.8097C18.1534 4.93534 17.8283 5 17.5 5C16.837 5 16.2011 4.73661 15.7322 4.26777C15.2634 3.79893 15 3.16304 15 2.5C15 1.83696 15.2634 1.20107 15.7322 0.732233C16.2011 0.263392 16.837 1.39726e-08 17.5 0Z" fill="#FFF8EA"/>
</svg>
