<svg width="12" height="16" viewBox="0 0 12 16" fill="none" xmlns="http://www.w3.org/2000/svg">
<path d="M1.5 16C1.0875 16 0.7345 15.8509 0.441 15.5528C0.147 15.2541 0 14.8952 0 14.4762V6.85714C0 6.4381 0.147 6.07924 0.441 5.78057C0.7345 5.48241 1.0875 5.33333 1.5 5.33333H2.25V3.80952C2.25 2.75556 2.61575 1.85702 3.34725 1.1139C4.07825 0.371302 4.9625 0 6 0C7.0375 0 7.922 0.371302 8.6535 1.1139C9.3845 1.85702 9.75 2.75556 9.75 3.80952V5.33333H10.5C10.9125 5.33333 11.2658 5.48241 11.5598 5.78057C11.8533 6.07924 12 6.4381 12 6.85714V14.4762C12 14.8952 11.8533 15.2541 11.5598 15.5528C11.2658 15.8509 10.9125 16 10.5 16H1.5ZM6 12.1905C6.4125 12.1905 6.76575 12.0414 7.05975 11.7432C7.35325 11.4446 7.5 11.0857 7.5 10.6667C7.5 10.2476 7.35325 9.88876 7.05975 9.5901C6.76575 9.29194 6.4125 9.14286 6 9.14286C5.5875 9.14286 5.2345 9.29194 4.941 9.5901C4.647 9.88876 4.5 10.2476 4.5 10.6667C4.5 11.0857 4.647 11.4446 4.941 11.7432C5.2345 12.0414 5.5875 12.1905 6 12.1905ZM3.75 5.33333H8.25V3.80952C8.25 3.1746 8.03125 2.63492 7.59375 2.19048C7.15625 1.74603 6.625 1.52381 6 1.52381C5.375 1.52381 4.84375 1.74603 4.40625 2.19048C3.96875 2.63492 3.75 3.1746 3.75 3.80952V5.33333Z" fill="#A54426"/>
</svg>
