<svg width="28" height="51" viewBox="0 0 28 51" fill="none" xmlns="http://www.w3.org/2000/svg">
<path fill-rule="evenodd" clip-rule="evenodd" d="M16.0943 50.1513C15.5434 50.6948 14.7967 51 14.0182 51C13.2396 51 12.4929 50.6948 11.942 50.1513L0.860087 39.208C0.309199 38.6636 -0.000183575 37.9253 8.17209e-08 37.1555C0.000183739 36.3857 0.309918 35.6476 0.861066 35.1034C1.41221 34.5592 2.15963 34.2536 2.93889 34.2538C3.71814 34.2539 4.46541 34.5599 5.0163 35.1043L14.0182 43.9967L23.02 35.1043C23.5739 34.5754 24.3159 34.2825 25.0862 34.2888C25.8565 34.295 26.5935 34.5999 27.1385 35.1378C27.6835 35.6756 27.9928 36.4034 27.9999 37.1643C28.0069 37.9253 27.7111 38.6585 27.1762 39.2061L16.0963 50.1532L16.0943 50.1513Z" fill="white"/>
<path fill-rule="evenodd" clip-rule="evenodd" d="M16.0943 32.6438C15.5434 33.1872 14.7967 33.4925 14.0182 33.4925C13.2396 33.4925 12.4929 33.1872 11.942 32.6438L0.860087 21.7005C0.309199 21.1561 -0.000183575 20.4178 8.17209e-08 19.648C0.000183739 18.8782 0.309918 18.1401 0.861066 17.5959C1.41221 17.0517 2.15963 16.7461 2.93889 16.7462C3.71814 16.7464 4.46541 17.0524 5.0163 17.5968L14.0182 26.4892L23.02 17.5968C23.5739 17.0679 24.3159 16.775 25.0862 16.7813C25.8565 16.7875 26.5935 17.0924 27.1385 17.6303C27.6835 18.1681 27.9928 18.8959 27.9999 19.6568C28.0069 20.4178 27.7111 21.151 27.1762 21.6986L16.0963 32.6457L16.0943 32.6438Z" fill="#FFEDC8"/>
<path fill-rule="evenodd" clip-rule="evenodd" d="M16.0943 15.8975C15.5434 16.441 14.7967 16.7463 14.0182 16.7463C13.2396 16.7463 12.4929 16.441 11.942 15.8975L0.860087 4.9543C0.309199 4.40985 -0.000183575 3.67153 8.17209e-08 2.90176C0.000183739 2.13198 0.309918 1.39381 0.861066 0.849623C1.41221 0.305438 2.15963 -0.000181342 2.93889 8.07263e-08C3.71814 0.000181503 4.46541 0.306148 5.0163 0.85059L14.0182 9.74292L23.02 0.85059C23.5739 0.321667 24.3159 0.0287922 25.0862 0.0350435C25.8565 0.0412947 26.5935 0.346172 27.1385 0.884011C27.6835 1.42185 27.9928 2.14962 27.9999 2.91056C28.0069 3.67151 27.7111 4.40475 27.1762 4.95236L16.0963 15.8994L16.0943 15.8975Z" fill="#FFE1A4"/>
</svg>
