<svg width="16" height="18" viewBox="0 0 16 18" fill="none" xmlns="http://www.w3.org/2000/svg">
<path d="M10.88 0H7.41867C5.85067 0 4.608 0 3.63644 0.1332C2.63556 0.27 1.82578 0.558 1.18756 1.2069C0.548444 1.8558 0.264889 2.6793 0.130667 3.6963C6.62274e-08 4.6845 0 5.9472 0 7.5411V12.7953C0 14.1525 0.817778 15.3153 1.97956 15.8031C1.92 14.9841 1.92 13.8366 1.92 12.8808V8.3718C1.92 7.2189 1.92 6.2244 2.02489 5.4288C2.13778 4.5756 2.392 3.7584 3.04444 3.0951C3.69689 2.4318 4.50133 2.1735 5.34045 2.0583C6.12267 1.9521 7.10044 1.9521 8.23556 1.9521H10.9644C12.0987 1.9521 13.0747 1.9521 13.8578 2.0583C13.6231 1.45204 13.2135 0.931405 12.6823 0.564261C12.1512 0.197118 11.5231 0.000488517 10.88 0Z" fill="#FFF8EA"/>
<path d="M3.19971 8.45729C3.19971 6.00389 3.19971 4.77719 3.94993 4.01489C4.69926 3.25259 5.90548 3.25259 8.31971 3.25259H10.8797C13.293 3.25259 14.5002 3.25259 15.2504 4.01489C15.9997 4.77719 15.9997 6.00389 15.9997 8.45729V12.7953C15.9997 15.2487 15.9997 16.4754 15.2504 17.2377C14.5002 18 13.293 18 10.8797 18H8.31971C5.90637 18 4.69926 18 3.94993 17.2377C3.19971 16.4754 3.19971 15.2487 3.19971 12.7953V8.45729Z" fill="#FFF8EA"/>
</svg>
