<svg width="12" height="12" viewBox="0 0 12 12" fill="none" xmlns="http://www.w3.org/2000/svg">
<path d="M9.53553 10.9479L6 7.41234L2.46447 10.9479C2.27693 11.1354 2.02258 11.2408 1.75736 11.2408C1.49214 11.2408 1.23779 11.1354 1.05025 10.9479C0.862717 10.7603 0.75736 10.506 0.75736 10.2408C0.75736 9.97555 0.862717 9.7212 1.05025 9.53366L4.58579 5.99813L1.05025 2.46259C0.862716 2.27506 0.75736 2.0207 0.75736 1.75549C0.75736 1.49027 0.862716 1.23592 1.05025 1.04838C1.23779 0.860844 1.49214 0.755487 1.75736 0.755487C2.02258 0.755487 2.27693 0.860844 2.46447 1.04838L6 4.58391L9.53553 1.04838C9.72307 0.860844 9.97742 0.755487 10.2426 0.755487C10.5079 0.755487 10.7622 0.860844 10.9497 1.04838C11.1373 1.23592 11.2426 1.49027 11.2426 1.75549C11.2426 2.0207 11.1373 2.27506 10.9497 2.46259L7.41421 5.99813L10.9497 9.53366C11.1373 9.7212 11.2426 9.97555 11.2426 10.2408C11.2426 10.506 11.1373 10.7603 10.9497 10.9479C10.7622 11.1354 10.5079 11.2408 10.2426 11.2408C9.97742 11.2408 9.72307 11.1354 9.53553 10.9479Z" fill="#F73526"/>
</svg>
