<svg width="16" height="10" viewBox="0 0 16 10" fill="none" xmlns="http://www.w3.org/2000/svg">
<path fill-rule="evenodd" clip-rule="evenodd" d="M6.93998 0.939988C7.22123 0.659087 7.60248 0.501308 7.99998 0.501308C8.39748 0.501308 8.77873 0.659088 9.05998 0.939989L14.718 6.59599C14.9992 6.87738 15.1572 7.25898 15.1571 7.65684C15.157 8.0547 14.9989 8.43623 14.7175 8.71749C14.4361 8.99875 14.0545 9.15671 13.6566 9.15662C13.2588 9.15652 12.8772 8.99838 12.596 8.71699L7.99998 4.12099L3.40398 8.71699C3.1212 8.99036 2.74237 9.14173 2.34907 9.1385C1.95577 9.13527 1.57948 8.9777 1.30123 8.69971C1.02299 8.42173 0.865058 8.04559 0.861456 7.65229C0.857854 7.259 1.00887 6.88002 1.28198 6.59699L6.93898 0.938987L6.93998 0.939988Z" fill="#672E18"/>
</svg>
